<svg width="18" height="18" viewBox="0 0 18 18" fill="none" xmlns="http://www.w3.org/2000/svg">
<path d="M0.507096 14.9574L0 18L3.04258 17.4929C4.14185 17.3097 4.69148 17.2181 5.1788 16.9673C5.66612 16.7165 6.06013 16.3225 6.84814 15.5345L14.2812 8.10148C14.2812 8.10147 14.2812 8.10149 14.2812 8.10148L9.89853 3.7188L2.46552 11.1518C1.6775 11.9399 1.28348 12.3339 1.0327 12.8212C0.781913 13.3085 0.690306 13.8582 0.507096 14.9574Z" fill="#072A4F" fill-opacity="0.5"/>
<path d="M11.1381 2.4792L15.5208 6.86185C15.5208 6.86186 15.5208 6.86184 15.5208 6.86185L17.0923 5.29037C18.3026 4.08013 18.3026 2.11792 17.0923 0.907678C15.8821 -0.30256 13.9199 -0.30256 12.7096 0.907682L11.1381 2.4792Z" fill="#072A4F" fill-opacity="0.5"/>
</svg>
