<svg width="15" height="18" viewBox="0 0 15 18" fill="none" xmlns="http://www.w3.org/2000/svg">
<path d="M5.83333 0C4.91286 0 4.16667 0.767512 4.16667 1.71429H0.833333C0.373096 1.71429 0 2.09804 0 2.57143C0 3.04482 0.373096 3.42857 0.833333 3.42857L14.1667 3.42857C14.6269 3.42857 15 3.04482 15 2.57143C15 2.09804 14.6269 1.71429 14.1667 1.71429L10.8333 1.71429C10.8333 0.767512 10.0871 0 9.16667 0H5.83333Z" fill="#072A4F" fill-opacity="0.5"/>
<path fill-rule="evenodd" clip-rule="evenodd" d="M0.833257 4.28571L1.30272 12.0117C1.46184 14.6303 1.54139 15.9396 2.27702 16.8144C2.4276 16.9935 2.5958 17.156 2.77893 17.2994C3.67362 18 4.94906 18 7.49992 18C10.0508 18 11.3262 18 12.2209 17.2994C12.404 17.156 12.5722 16.9935 12.7228 16.8144C13.4585 15.9396 13.538 14.6303 13.6971 12.0117L14.1666 4.28571H0.833257ZM6.66659 8.57143C6.66659 8.09804 6.29349 7.71429 5.83326 7.71429C5.37302 7.71429 4.99992 8.09804 4.99992 8.57143V13.7143C4.99992 14.1877 5.37302 14.5714 5.83326 14.5714C6.29349 14.5714 6.66659 14.1877 6.66659 13.7143V8.57143ZM9.16659 7.71429C9.62683 7.71429 9.99992 8.09804 9.99992 8.57143V13.7143C9.99992 14.1877 9.62683 14.5714 9.16659 14.5714C8.70635 14.5714 8.33325 14.1877 8.33325 13.7143V8.57143C8.33325 8.09804 8.70635 7.71429 9.16659 7.71429Z" fill="#072A4F" fill-opacity="0.5"/>
</svg>
