<svg width="10" height="10" viewBox="0 0 10 10" fill="none" xmlns="http://www.w3.org/2000/svg">
<path fill-rule="evenodd" clip-rule="evenodd" d="M4 0C1.79086 0 0 1.79086 0 4C0 6.20914 1.79086 8 4 8C6.20914 8 8 6.20914 8 4C8 1.79086 6.20914 0 4 0ZM1.5 4C1.5 2.61929 2.61929 1.5 4 1.5C5.38071 1.5 6.5 2.61929 6.5 4C6.5 5.38071 5.38071 6.5 4 6.5C2.61929 6.5 1.5 5.38071 1.5 4Z" fill="#072A4F"/>
<path d="M7.75 6.68934L6.68934 7.75L8.71967 9.78033C9.01256 10.0732 9.48744 10.0732 9.78033 9.78033C10.0732 9.48744 10.0732 9.01256 9.78033 8.71967L7.75 6.68934Z" fill="#072A4F"/>
</svg>
