<svg width="21" height="24" viewBox="0 0 21 24" fill="none" xmlns="http://www.w3.org/2000/svg">
<path d="M8.09375 19.1186H1.96875C0.882875 19.1186 0 18.235 0 17.1502V9.71411C0 8.62931 0.882875 7.74573 1.96875 7.74573H12.0312C13.1171 7.74573 14 8.62931 14 9.71411C14 10.0763 13.706 10.3702 13.3438 10.3702C12.9815 10.3702 12.6875 10.0763 12.6875 9.71411C12.6875 9.3528 12.3935 9.05798 12.0312 9.05798H1.96875C1.6065 9.05798 1.3125 9.3528 1.3125 9.71411V17.1502C1.3125 17.5115 1.6065 17.8064 1.96875 17.8064H8.09375C8.456 17.8064 8.75 18.1003 8.75 18.4625C8.75 18.8247 8.456 19.1186 8.09375 19.1186Z" fill="white"/>
<path d="M10.325 8.77961C9.9524 8.77961 9.65 8.45265 9.65 8.0498V5.37383C9.65 3.49578 8.237 1.96804 6.5 1.96804C4.763 1.96804 3.35 3.49578 3.35 5.37383V8.0498C3.35 8.45265 3.0476 8.77961 2.675 8.77961C2.3024 8.77961 2 8.45265 2 8.0498V5.37383C2 2.69104 4.0187 0.508423 6.5 0.508423C8.9813 0.508423 11 2.69104 11 5.37383V8.0498C11 8.45265 10.6976 8.77961 10.325 8.77961Z" fill="white"/>
<path d="M13.7043 13.1982L13.2072 13.1447V13.1447L13.7043 13.1982ZM13.697 13.2665L14.1941 13.3199V13.3199L13.697 13.2665ZM13.0494 14.2441L12.7704 13.8291L12.7704 13.8291L13.0494 14.2441ZM12.894 14.3541L12.5953 13.9531L12.5953 13.9531L12.894 14.3541ZM11.8559 14.5012L12.0673 14.0481L12.0673 14.0481L11.8559 14.5012ZM10.7116 14.8709L10.275 14.6271H10.275L10.7116 14.8709ZM10.5 15.2498L10.0635 15.006H10.0635L10.5 15.2498ZM10.7931 16.6167L11.0913 16.2154H11.0913L10.7931 16.6167ZM11.2561 17.6372L10.7561 17.6347L10.7561 17.6359L11.2561 17.6372ZM11.256 17.6584L10.756 17.6572V17.6584H11.256ZM11.2724 18.0318L10.7743 18.0756H10.7743L11.2724 18.0318ZM10.857 19.0613L10.5588 18.66H10.5588L10.857 19.0613ZM10.5867 20.3222L10.1502 20.566H10.1502L10.5867 20.3222ZM10.7701 20.6506L11.2066 20.4068H11.2066L10.7701 20.6506ZM12.0956 21.0788L11.8841 20.6257L11.8841 20.6257L12.0956 21.0788ZM12.1593 21.0491L12.3707 21.5022L12.3707 21.5022L12.1593 21.0491ZM13.1636 21.1467L12.8992 21.571L13.1636 21.1467ZM13.6824 21.9144L14.1795 21.861V21.861L13.6824 21.9144ZM13.7043 22.1187L13.2072 22.1721V22.1721L13.7043 22.1187ZM16.3402 22.2451L15.8431 22.1917V22.1917L16.3402 22.2451ZM17.0794 21.2307L16.8331 20.7956L17.0794 21.2307ZM18.3213 21.1253L18.1099 21.5784V21.5784L18.3213 21.1253ZM19.7848 20.6525L20.2213 20.8963L20.2213 20.8963L19.7848 20.6525ZM19.8778 20.486L19.4412 20.2422H19.4412L19.8778 20.486ZM19.5802 19.0981L19.282 19.4994V19.4994L19.5802 19.0981ZM19.1175 17.9648L18.6188 17.9289L18.6188 17.9289L19.1175 17.9648ZM19.607 16.6075L19.9053 17.0088L19.9053 17.0088L19.607 16.6075ZM19.6412 16.5821L19.343 16.1808L19.343 16.1808L19.6412 16.5821ZM19.9626 15.0827L20.3992 14.839L19.9626 15.0827ZM19.8403 14.8636L19.4037 15.1074V15.1074L19.8403 14.8636ZM18.5665 14.4521L18.778 14.9052V14.9052L18.5665 14.4521ZM17.4132 14.298L17.1244 14.7061V14.7061L17.4132 14.298ZM17.0758 14.0841L17.3216 13.6486L17.3216 13.6486L17.0758 14.0841ZM16.3402 13.0717L16.8374 13.0183L16.3402 13.0717ZM14.2014 13.2516C14.2436 12.8597 14.5743 12.5626 14.9684 12.5626V11.5626C14.0634 11.5626 13.3039 12.2449 13.2072 13.1447L14.2014 13.2516ZM14.1941 13.3199L14.2014 13.2516L13.2072 13.1447L13.1998 13.2131L14.1941 13.3199ZM13.3284 14.659C13.7506 14.3752 14.1301 13.9156 14.1941 13.3199L13.1998 13.2131C13.1764 13.4312 13.0275 13.6563 12.7704 13.8291L13.3284 14.659ZM13.1927 14.7551C13.2371 14.722 13.2824 14.69 13.3284 14.659L12.7704 13.8291C12.7111 13.8691 12.6527 13.9104 12.5953 13.9531L13.1927 14.7551ZM11.6445 14.9543C12.1887 15.2083 12.781 15.0617 13.1927 14.7551L12.5953 13.9531C12.4054 14.0946 12.2028 14.1113 12.0673 14.0481L11.6445 14.9543ZM11.1481 15.1147C11.246 14.9394 11.4626 14.8694 11.6445 14.9543L12.0673 14.0481C11.4105 13.7416 10.6284 13.9943 10.275 14.6271L11.1481 15.1147ZM10.9366 15.4935L11.1481 15.1147L10.275 14.6271L10.0635 15.006L10.9366 15.4935ZM11.0913 16.2154C10.8658 16.0478 10.7996 15.7389 10.9366 15.4935L10.0635 15.006C9.68161 15.6898 9.86619 16.5508 10.4948 17.018L11.0913 16.2154ZM11.7561 17.6396C11.7586 17.1295 11.5661 16.5683 11.0913 16.2154L10.4948 17.018C10.6525 17.1352 10.7574 17.3568 10.7561 17.6347L11.7561 17.6396ZM11.756 17.6596L11.7561 17.6384L10.7561 17.6359L10.756 17.6572L11.756 17.6596ZM11.7704 17.988C11.7609 17.8796 11.756 17.7697 11.756 17.6584H10.756C10.756 17.7989 10.7622 17.9381 10.7743 18.0756L11.7704 17.988ZM11.1553 19.4626C11.6435 19.0998 11.8163 18.5092 11.7704 17.988L10.7743 18.0756C10.7975 18.3398 10.7033 18.5526 10.5588 18.66L11.1553 19.4626ZM11.0233 20.0784C10.9064 19.8691 10.9629 19.6056 11.1553 19.4626L10.5588 18.66C9.96327 19.1026 9.78842 19.9182 10.1502 20.566L11.0233 20.0784ZM11.2066 20.4068L11.0233 20.0784L10.1502 20.566L10.3336 20.8944L11.2066 20.4068ZM11.8841 20.6257C11.6358 20.7415 11.3402 20.646 11.2066 20.4068L10.3336 20.8944C10.7227 21.5912 11.5837 21.8694 12.307 21.5319L11.8841 20.6257ZM11.9479 20.596L11.8841 20.6257L12.307 21.5319L12.3707 21.5022L11.9479 20.596ZM13.428 20.7223C13.0169 20.4662 12.4598 20.3571 11.9479 20.596L12.3707 21.5022C12.5067 21.4387 12.7035 21.4491 12.8992 21.571L13.428 20.7223ZM14.1795 21.861C14.1247 21.3508 13.8013 20.9548 13.428 20.7223L12.8992 21.571C13.0769 21.6817 13.1707 21.8326 13.1852 21.9678L14.1795 21.861ZM14.2014 22.0652L14.1795 21.861L13.1852 21.9678L13.2072 22.1721L14.2014 22.0652ZM14.9684 22.7542C14.5743 22.7542 14.2436 22.4571 14.2014 22.0652L13.2072 22.1721C13.3039 23.0719 14.0633 23.7542 14.9684 23.7542V22.7542ZM15.2169 22.7542H14.9684V23.7542H15.2169V22.7542ZM15.8431 22.1917C15.8087 22.5116 15.5387 22.7542 15.2169 22.7542V23.7542C16.0496 23.7542 16.7484 23.1265 16.8374 22.2985L15.8431 22.1917ZM16.8331 20.7956C16.3585 21.0642 15.9126 21.545 15.8431 22.1917L16.8374 22.2985C16.862 22.0696 17.0339 21.831 17.3256 21.6659L16.8331 20.7956ZM18.5327 20.6722C17.9466 20.3987 17.3098 20.5258 16.8331 20.7956L17.3256 21.6659C17.6128 21.5034 17.9008 21.4808 18.1099 21.5784L18.5327 20.6722ZM19.3482 20.4087C19.1874 20.6967 18.8316 20.8116 18.5327 20.6722L18.1099 21.5784C18.8837 21.9395 19.805 21.6418 20.2213 20.8963L19.3482 20.4087ZM19.4412 20.2422L19.3482 20.4087L20.2213 20.8963L20.3143 20.7298L19.4412 20.2422ZM19.282 19.4994C19.5141 19.6719 19.5822 19.9898 19.4412 20.2422L20.3143 20.7298C20.7002 20.0388 20.5137 19.1689 19.8785 18.6968L19.282 19.4994ZM18.6188 17.9289C18.5789 18.4828 18.7616 19.1126 19.282 19.4994L19.8785 18.6968C19.7028 18.5662 19.5938 18.3118 19.6162 18.0007L18.6188 17.9289ZM18.6285 17.6584C18.6285 17.7495 18.6252 17.8397 18.6188 17.9289L19.6162 18.0007C19.6243 17.8876 19.6285 17.7735 19.6285 17.6584H18.6285ZM19.3088 16.2062C18.8245 16.5662 18.6285 17.1387 18.6285 17.6584H19.6285C19.6285 17.3666 19.7383 17.133 19.9053 17.0088L19.3088 16.2062ZM19.343 16.1808L19.3088 16.2062L19.9053 17.0088L19.9395 16.9834L19.343 16.1808ZM19.5261 15.3265C19.6882 15.6169 19.6099 15.9824 19.343 16.1808L19.9395 16.9834C20.6095 16.4855 20.8062 15.5678 20.3992 14.839L19.5261 15.3265ZM19.4037 15.1074L19.5261 15.3265L20.3992 14.839L20.2768 14.6198L19.4037 15.1074ZM18.778 14.9052C19.0073 14.7982 19.2803 14.8864 19.4037 15.1074L20.2768 14.6198C19.8979 13.9413 19.0594 13.6704 18.3551 13.999L18.778 14.9052ZM17.1244 14.7061C17.5682 15.0203 18.1982 15.1757 18.778 14.9052L18.3551 13.999C18.1832 14.0792 17.9353 14.055 17.7021 13.8899L17.1244 14.7061ZM16.83 14.5195C16.9312 14.5766 17.0295 14.6389 17.1244 14.7061L17.7021 13.8899C17.5796 13.8032 17.4527 13.7226 17.3216 13.6486L16.83 14.5195ZM15.8431 13.1251C15.9124 13.7703 16.3529 14.2502 16.83 14.5195L17.3216 13.6486C17.0317 13.485 16.8622 13.2487 16.8374 13.0183L15.8431 13.1251ZM15.2169 12.5626C15.5387 12.5626 15.8087 12.8052 15.8431 13.1251L16.8374 13.0183C16.7484 12.1903 16.0496 11.5626 15.2169 11.5626V12.5626ZM14.9684 12.5626H15.2169V11.5626H14.9684V12.5626ZM16.1684 17.6584C16.1684 18.241 15.7158 18.6845 15.1923 18.6845V19.6845C16.2993 19.6845 17.1684 18.7616 17.1684 17.6584H16.1684ZM15.1923 16.6323C15.7158 16.6323 16.1684 17.0759 16.1684 17.6584H17.1684C17.1684 16.5553 16.2993 15.6323 15.1923 15.6323V16.6323ZM14.2162 17.6584C14.2162 17.0759 14.6688 16.6323 15.1923 16.6323V15.6323C14.0854 15.6323 13.2162 16.5553 13.2162 17.6584H14.2162ZM15.1923 18.6845C14.6688 18.6845 14.2162 18.241 14.2162 17.6584H13.2162C13.2162 18.7616 14.0854 19.6845 15.1923 19.6845V18.6845Z" fill="white"/>
</svg>
