<svg width="24" height="20" viewBox="0 0 24 20" fill="none" xmlns="http://www.w3.org/2000/svg">
<path fill-rule="evenodd" clip-rule="evenodd" d="M21.3144 11.8466C21.8532 10.89 22 10.2474 22 10C22 9.75263 21.8532 9.11004 21.3144 8.15336C20.806 7.25071 20.0461 6.24347 19.0865 5.30446C17.1368 3.39659 14.6111 2 12 2C9.38892 2 6.86321 3.39659 4.91352 5.30446C3.95393 6.24347 3.19403 7.25071 2.68563 8.15336C2.1468 9.11004 2 9.75263 2 10C2 10.2474 2.1468 10.89 2.68563 11.8466C3.19403 12.7493 3.95393 13.7565 4.91352 14.6955C6.86321 16.6034 9.38892 18 12 18C14.6111 18 17.1368 16.6034 19.0865 14.6955C20.0461 13.7565 20.806 12.7493 21.3144 11.8466ZM12 20C18.6274 20 24 13 24 10C24 7 18.6274 0 12 0C5.37258 0 0 7 0 10C0 13 5.37258 20 12 20ZM9.01121 9.73887C9.00379 9.82493 9 9.91202 9 10C9 11.6569 10.3431 13 12 13C13.6569 13 15 11.6569 15 10C15 8.34315 13.6569 7 12 7C11.912 7 11.8249 7.00379 11.7389 7.01121C11.9051 7.30283 12 7.64033 12 8C12 9.10457 11.1046 10 10 10C9.64033 10 9.30283 9.90506 9.01121 9.73887ZM7 10C7 7.23858 9.23858 5 12 5C14.7614 5 17 7.23858 17 10C17 12.7614 14.7614 15 12 15C9.23858 15 7 12.7614 7 10Z" fill="white" fill-opacity="0.3"/>
</svg>
