<svg width="19" height="19" viewBox="0 0 19 19"  xmlns="http://www.w3.org/2000/svg">
<path d="M12.9545 0C13.4315 0 13.8182 0.386663 13.8182 0.863636V2.59091H12.0909V0.863636C12.0909 0.386663 12.4776 0 12.9545 0Z" fill="#181D30" fill-opacity="0.3"/>
<path d="M6.90909 2.59091V0.863636C6.90909 0.386663 6.52243 0 6.04545 0C5.56848 0 5.18182 0.386663 5.18182 0.863636V2.59091H6.90909Z" fill="#181D30" fill-opacity="0.3"/>
<path d="M6.90909 2.59091V4.31818C6.90909 4.79516 6.52243 5.18182 6.04545 5.18182C5.56848 5.18182 5.18182 4.79516 5.18182 4.31818V2.59091C3.47467 2.59224 2.57983 2.61402 1.88621 2.96743C1.2362 3.29863 0.707722 3.82711 0.376523 4.47712C0 5.21609 0 6.18345 0 8.11818V13.4727C0 15.4075 0 16.3748 0.376523 17.1138C0.707722 17.7638 1.2362 18.2923 1.88621 18.6235C2.62518 19 3.59255 19 5.52727 19H13.4727C15.4075 19 16.3748 19 17.1138 18.6235C17.7638 18.2923 18.2923 17.7638 18.6235 17.1138C19 16.3748 19 15.4075 19 13.4727V8.11818C19 6.18345 19 5.21609 18.6235 4.47712C18.2923 3.82711 17.7638 3.29863 17.1138 2.96743C16.4202 2.61402 15.5253 2.59224 13.8182 2.59091V4.31818C13.8182 4.79516 13.4315 5.18182 12.9545 5.18182C12.4776 5.18182 12.0909 4.79516 12.0909 4.31818V2.59091H6.90909Z" fill="#181D30" fill-opacity="0.3"/>
</svg>
