<svg width="259" height="259" viewBox="0 0 259 259" fill="none" xmlns="http://www.w3.org/2000/svg">
<rect width="259" height="259" fill="#1A2327"/>
<rect x="41" y="26" width="177" height="177" rx="10" fill="black"/>
<path d="M134.463 149C130.249 149 127.104 147.945 125.027 145.835C123.009 143.725 122 140.127 122 135.042V87H129L128.774 134.5C128.774 138.071 129.567 140.236 130.635 141.534C131.703 142.832 133.185 142.729 135.5 143H182V148.919L134.463 149Z" fill="white"/>
<path d="M85.3623 125C81.5208 125 78.6531 124.132 76.7594 122.397C74.9198 120.661 74 117.702 74 113.518V88H81.013V113.231C81.013 116.168 81.013 116.151 81.7143 117.154C82.629 118.462 84.5132 118.239 86.6234 118.462H111.827L112 125H85.3623Z" fill="white"/>
<path d="M174.783 82C177.494 82 179.693 82.8922 181.38 84.6766C183.127 86.4052 184 89.5836 184 94.2119V127H177L177.042 95.3829C177.042 92.316 176.831 90.2528 176.41 89.1933C175.988 88.0781 174.964 87.5204 173.337 87.5204C170.265 87.5204 167.494 89.277 165.024 92.79V127H157.976V95.3829C157.976 92.316 157.765 90.2528 157.343 89.1933C156.922 88.0781 155.898 87.5204 154.271 87.5204C151.199 87.5204 148.428 89.277 145.958 92.79L146 127H139V82.9201H144.873L145.416 88.1059C146.861 86.1543 148.367 84.6487 149.934 83.5892C151.56 82.5297 153.488 82 155.717 82C160.175 82 163.036 83.9517 164.301 87.855C165.747 85.9591 167.283 84.5093 168.91 83.5056C170.536 82.5019 172.494 82 174.783 82Z" fill="white"/>
<path d="M109 122V87V146" stroke="white" stroke-width="7"/>
<path d="M74 83C74 81.8954 74.8954 81 76 81H79C80.1046 81 81 81.8954 81 83V88C81 89.1046 80.1046 90 79 90H76C74.8954 90 74 89.1046 74 88V83Z" fill="white"/>
<path d="M105.5 83C105.5 81.8954 106.395 81 107.5 81H110.5C111.605 81 112.5 81.8954 112.5 83V88C112.5 89.1046 111.605 90 110.5 90H107.5C106.395 90 105.5 89.1046 105.5 88V83Z" fill="white"/>
<path d="M105.5 142C105.5 140.895 106.395 140 107.5 140H110.5C111.605 140 112.5 140.895 112.5 142V147C112.5 148.105 111.605 149 110.5 149H107.5C106.395 149 105.5 148.105 105.5 147V142Z" fill="white"/>
</svg>
