<svg width="15" height="16" viewBox="0 0 15 16" fill="none" xmlns="http://www.w3.org/2000/svg">
<path fill-rule="evenodd" clip-rule="evenodd" d="M7.05882 0.941162C3.89562 0.941162 1.33134 3.46944 1.33134 6.58822V8.93681C1.33134 9.21973 1.18793 9.48394 0.949166 9.64088C-0.0300953 10.2846 -0.294712 11.5891 0.35813 12.5546C0.75336 13.1391 1.41873 13.4902 2.13124 13.4902H4.51327C4.51327 14.8763 5.65296 16 7.05882 16C8.46469 16 9.60437 14.8763 9.60437 13.4902H11.9864C12.6989 13.4902 13.3643 13.1391 13.7595 12.5546C14.4124 11.5891 14.1477 10.2846 13.1685 9.64088C12.9297 9.48394 12.7863 9.21973 12.7863 8.93681V6.58822C12.7863 3.46944 10.222 0.941162 7.05882 0.941162ZM8.3316 13.4902C8.3316 14.1832 7.76176 14.7451 7.05882 14.7451C6.35589 14.7451 5.78605 14.1832 5.78605 13.4902H8.3316ZM11.9864 12.2353C12.2734 12.2353 12.5413 12.0939 12.7005 11.8585C12.9634 11.4696 12.8569 10.9443 12.4625 10.685C11.8696 10.2953 11.5135 9.63931 11.5135 8.93681V6.58822C11.5135 4.1625 9.51909 2.19606 7.05882 2.19606C4.59856 2.19606 2.60411 4.1625 2.60411 6.58822V8.93681C2.60411 9.63931 2.24802 10.2953 1.65517 10.685C1.26079 10.9443 1.15422 11.4696 1.41714 11.8585C1.57632 12.0939 1.84428 12.2353 2.13124 12.2353H11.9864Z" fill="#E82C4D"/>
<path d="M4.71212 2.18312C4.75451 1.59749 5.01433 1.04887 5.44055 0.645011C5.86677 0.241155 6.42858 0.0112484 7.01564 0.000448436C7.60271 -0.010352 8.1726 0.198735 8.61338 0.586641C9.05416 0.974548 9.33399 1.51324 9.39789 2.09692L8.20962 2.22701C8.17818 1.93986 8.04052 1.67484 7.82367 1.484C7.60682 1.29317 7.32645 1.1903 7.03763 1.19562C6.74881 1.20093 6.47242 1.31404 6.26274 1.51272C6.05305 1.7114 5.92523 1.98131 5.90437 2.26942L4.71212 2.18312Z" fill="#E82C4D"/>
</svg>
