<svg width="12" height="12" viewBox="0 0 12 12" fill="none" xmlns="http://www.w3.org/2000/svg">
<path d="M5.99997 5.08384L2.10605 1.19003C1.85277 0.936628 1.44324 0.936628 1.18996 1.19003C0.936679 1.44331 0.936679 1.85284 1.18996 2.10612L5.08388 6.00005L1.18996 9.89386C0.936679 10.1473 0.936679 10.5567 1.18996 10.8099C1.44325 11.0634 1.85277 11.0634 2.10605 10.8099L5.99997 6.91614L9.89388 10.8099C10.1472 11.0634 10.5567 11.0634 10.81 10.8099C10.9363 10.6837 10.9998 10.5178 10.9998 10.3519C10.9998 10.1861 10.9363 10.0202 10.81 9.89386L6.91606 6.00005L10.81 2.10612C10.9363 1.97978 10.9998 1.81393 10.9998 1.64808C10.9998 1.48223 10.9363 1.31638 10.81 1.19003C10.5567 0.936628 10.1472 0.936628 9.89388 1.19003L5.99997 5.08384Z" fill="#00255B" stroke="#00255B" stroke-width="0.999182"/>
</svg>
