<svg width="231" height="242" viewBox="0 0 231 242" fill="none" xmlns="http://www.w3.org/2000/svg">
<rect width="231" height="242" rx="4" fill="white"/>
<rect x="15" y="15" width="201" height="212" rx="4" fill="#072A4F" fill-opacity="0.1"/>
<rect x="26" y="11" width="7" height="1" rx="0.5" fill="#CFD1D3"/>
<rect x="26" y="11" width="7" height="1" rx="0.5" fill="#CFD1D3"/>
<rect x="19" y="11" width="4" height="1" rx="0.5" fill="#CFD1D3"/>
<rect x="19" y="11" width="4" height="1" rx="0.5" fill="#CFD1D3"/>
<rect x="26" y="230" width="7" height="1" rx="0.5" fill="#CFD1D3"/>
<rect x="26" y="230" width="7" height="1" rx="0.5" fill="#CFD1D3"/>
<rect x="219" y="196" width="7" height="1" rx="0.5" transform="rotate(-90 219 196)" fill="#CFD1D3"/>
<rect x="219" y="196" width="7" height="1" rx="0.5" transform="rotate(-90 219 196)" fill="#CFD1D3"/>
<rect width="7" height="1" rx="0.5" transform="matrix(4.37114e-08 -1 -1 -4.37114e-08 12 196.5)" fill="#CFD1D3"/>
<rect width="7" height="1" rx="0.5" transform="matrix(4.37114e-08 -1 -1 -4.37114e-08 12 196.5)" fill="#CFD1D3"/>
<rect x="122" y="11" width="7" height="1" rx="0.5" fill="#CFD1D3"/>
<rect x="122" y="11" width="7" height="1" rx="0.5" fill="#CFD1D3"/>
<rect x="122" y="230" width="7" height="1" rx="0.5" fill="#CFD1D3"/>
<rect x="122" y="230" width="7" height="1" rx="0.5" fill="#CFD1D3"/>
<rect x="219" y="100" width="7" height="1" rx="0.5" transform="rotate(-90 219 100)" fill="#CFD1D3"/>
<rect x="219" y="100" width="7" height="1" rx="0.5" transform="rotate(-90 219 100)" fill="#CFD1D3"/>
<rect width="7" height="1" rx="0.5" transform="matrix(4.37114e-08 -1 -1 -4.37114e-08 12 100.5)" fill="#CFD1D3"/>
<rect width="7" height="1" rx="0.5" transform="matrix(4.37114e-08 -1 -1 -4.37114e-08 12 100.5)" fill="#CFD1D3"/>
<rect x="74" y="11" width="7" height="1" rx="0.5" fill="#CFD1D3"/>
<rect x="74" y="11" width="7" height="1" rx="0.5" fill="#CFD1D3"/>
<rect x="74" y="230" width="7" height="1" rx="0.5" fill="#CFD1D3"/>
<rect x="74" y="230" width="7" height="1" rx="0.5" fill="#CFD1D3"/>
<rect x="219" y="148" width="7" height="1" rx="0.5" transform="rotate(-90 219 148)" fill="#CFD1D3"/>
<rect x="219" y="148" width="7" height="1" rx="0.5" transform="rotate(-90 219 148)" fill="#CFD1D3"/>
<rect width="7" height="1" rx="0.5" transform="matrix(4.37114e-08 -1 -1 -4.37114e-08 12 148.5)" fill="#CFD1D3"/>
<rect width="7" height="1" rx="0.5" transform="matrix(4.37114e-08 -1 -1 -4.37114e-08 12 148.5)" fill="#CFD1D3"/>
<rect x="170" y="11" width="7" height="1" rx="0.5" fill="#CFD1D3"/>
<rect x="170" y="11" width="7" height="1" rx="0.5" fill="#CFD1D3"/>
<rect x="170" y="230" width="7" height="1" rx="0.5" fill="#CFD1D3"/>
<rect x="170" y="230" width="7" height="1" rx="0.5" fill="#CFD1D3"/>
<rect x="219" y="52" width="7" height="1" rx="0.5" transform="rotate(-90 219 52)" fill="#CFD1D3"/>
<rect x="219" y="52" width="7" height="1" rx="0.5" transform="rotate(-90 219 52)" fill="#CFD1D3"/>
<rect width="7" height="1" rx="0.5" transform="matrix(4.37114e-08 -1 -1 -4.37114e-08 12 52.5)" fill="#CFD1D3"/>
<rect width="7" height="1" rx="0.5" transform="matrix(4.37114e-08 -1 -1 -4.37114e-08 12 52.5)" fill="#CFD1D3"/>
<rect x="50" y="11" width="7" height="1" rx="0.5" fill="#CFD1D3"/>
<rect x="50" y="11" width="7" height="1" rx="0.5" fill="#CFD1D3"/>
<rect x="50" y="230" width="7" height="1" rx="0.5" fill="#CFD1D3"/>
<rect x="50" y="230" width="7" height="1" rx="0.5" fill="#CFD1D3"/>
<rect x="219" y="172" width="7" height="1" rx="0.5" transform="rotate(-90 219 172)" fill="#CFD1D3"/>
<rect x="219" y="172" width="7" height="1" rx="0.5" transform="rotate(-90 219 172)" fill="#CFD1D3"/>
<rect width="7" height="1" rx="0.5" transform="matrix(4.37114e-08 -1 -1 -4.37114e-08 12 172.5)" fill="#CFD1D3"/>
<rect width="7" height="1" rx="0.5" transform="matrix(4.37114e-08 -1 -1 -4.37114e-08 12 172.5)" fill="#CFD1D3"/>
<rect x="219" y="208" width="7" height="1" rx="0.5" transform="rotate(-90 219 208)" fill="#CFD1D3"/>
<rect x="219" y="208" width="7" height="1" rx="0.5" transform="rotate(-90 219 208)" fill="#CFD1D3"/>
<rect width="7" height="1" rx="0.5" transform="matrix(4.37114e-08 -1 -1 -4.37114e-08 12 208.5)" fill="#CFD1D3"/>
<rect width="7" height="1" rx="0.5" transform="matrix(4.37114e-08 -1 -1 -4.37114e-08 12 208.5)" fill="#CFD1D3"/>
<rect x="146" y="11" width="7" height="1" rx="0.5" fill="#CFD1D3"/>
<rect x="146" y="11" width="7" height="1" rx="0.5" fill="#CFD1D3"/>
<rect x="146" y="230" width="7" height="1" rx="0.5" fill="#CFD1D3"/>
<rect x="146" y="230" width="7" height="1" rx="0.5" fill="#CFD1D3"/>
<rect x="219" y="76" width="7" height="1" rx="0.5" transform="rotate(-90 219 76)" fill="#CFD1D3"/>
<rect x="219" y="76" width="7" height="1" rx="0.5" transform="rotate(-90 219 76)" fill="#CFD1D3"/>
<rect width="7" height="1" rx="0.5" transform="matrix(4.37114e-08 -1 -1 -4.37114e-08 12 76.5)" fill="#CFD1D3"/>
<rect width="7" height="1" rx="0.5" transform="matrix(4.37114e-08 -1 -1 -4.37114e-08 12 76.5)" fill="#CFD1D3"/>
<rect x="98" y="11" width="7" height="1" rx="0.5" fill="#CFD1D3"/>
<rect x="98" y="11" width="7" height="1" rx="0.5" fill="#CFD1D3"/>
<rect x="98" y="230" width="7" height="1" rx="0.5" fill="#CFD1D3"/>
<rect x="98" y="230" width="7" height="1" rx="0.5" fill="#CFD1D3"/>
<rect x="219" y="124" width="7" height="1" rx="0.5" transform="rotate(-90 219 124)" fill="#CFD1D3"/>
<rect x="219" y="124" width="7" height="1" rx="0.5" transform="rotate(-90 219 124)" fill="#CFD1D3"/>
<rect width="7" height="1" rx="0.5" transform="matrix(4.37114e-08 -1 -1 -4.37114e-08 12 124.5)" fill="#CFD1D3"/>
<rect width="7" height="1" rx="0.5" transform="matrix(4.37114e-08 -1 -1 -4.37114e-08 12 124.5)" fill="#CFD1D3"/>
<rect x="194" y="11" width="7" height="1" rx="0.5" fill="#CFD1D3"/>
<rect x="194" y="11" width="7" height="1" rx="0.5" fill="#CFD1D3"/>
<rect x="206" y="11" width="5" height="1" rx="0.5" fill="#CFD1D3"/>
<rect x="206" y="11" width="5" height="1" rx="0.5" fill="#CFD1D3"/>
<rect x="194" y="230" width="7" height="1" rx="0.5" fill="#CFD1D3"/>
<rect x="194" y="230" width="7" height="1" rx="0.5" fill="#CFD1D3"/>
<rect x="204" y="230" width="5" height="1" rx="0.5" fill="#CFD1D3"/>
<rect x="204" y="230" width="5" height="1" rx="0.5" fill="#CFD1D3"/>
<rect x="219" y="28" width="7" height="1" rx="0.5" transform="rotate(-90 219 28)" fill="#CFD1D3"/>
<rect x="219" y="28" width="7" height="1" rx="0.5" transform="rotate(-90 219 28)" fill="#CFD1D3"/>
<rect width="7" height="1" rx="0.5" transform="matrix(4.37114e-08 -1 -1 -4.37114e-08 12 28.5)" fill="#CFD1D3"/>
<rect width="7" height="1" rx="0.5" transform="matrix(4.37114e-08 -1 -1 -4.37114e-08 12 28.5)" fill="#CFD1D3"/>
<rect x="38" y="11" width="7" height="1" rx="0.5" fill="#CFD1D3"/>
<rect x="38" y="11" width="7" height="1" rx="0.5" fill="#CFD1D3"/>
<rect x="38" y="230" width="7" height="1" rx="0.5" fill="#CFD1D3"/>
<rect x="38" y="230" width="7" height="1" rx="0.5" fill="#CFD1D3"/>
<rect x="219" y="184" width="7" height="1" rx="0.5" transform="rotate(-90 219 184)" fill="#CFD1D3"/>
<rect x="219" y="184" width="7" height="1" rx="0.5" transform="rotate(-90 219 184)" fill="#CFD1D3"/>
<rect width="7" height="1" rx="0.5" transform="matrix(4.37114e-08 -1 -1 -4.37114e-08 12 184.5)" fill="#CFD1D3"/>
<rect width="7" height="1" rx="0.5" transform="matrix(4.37114e-08 -1 -1 -4.37114e-08 12 184.5)" fill="#CFD1D3"/>
<rect x="219" y="220" width="7" height="1" rx="0.5" transform="rotate(-90 219 220)" fill="#CFD1D3"/>
<rect x="219" y="220" width="7" height="1" rx="0.5" transform="rotate(-90 219 220)" fill="#CFD1D3"/>
<rect width="7" height="1" rx="0.5" transform="matrix(4.37114e-08 -1 -1 -4.37114e-08 12 220.5)" fill="#CFD1D3"/>
<rect width="7" height="1" rx="0.5" transform="matrix(4.37114e-08 -1 -1 -4.37114e-08 12 220.5)" fill="#CFD1D3"/>
<rect x="134" y="11" width="7" height="1" rx="0.5" fill="#CFD1D3"/>
<rect x="134" y="11" width="7" height="1" rx="0.5" fill="#CFD1D3"/>
<rect x="134" y="230" width="7" height="1" rx="0.5" fill="#CFD1D3"/>
<rect x="134" y="230" width="7" height="1" rx="0.5" fill="#CFD1D3"/>
<rect x="219" y="88" width="7" height="1" rx="0.5" transform="rotate(-90 219 88)" fill="#CFD1D3"/>
<rect x="219" y="88" width="7" height="1" rx="0.5" transform="rotate(-90 219 88)" fill="#CFD1D3"/>
<rect width="7" height="1" rx="0.5" transform="matrix(4.37114e-08 -1 -1 -4.37114e-08 12 88.5)" fill="#CFD1D3"/>
<rect width="7" height="1" rx="0.5" transform="matrix(4.37114e-08 -1 -1 -4.37114e-08 12 88.5)" fill="#CFD1D3"/>
<rect x="86" y="11" width="7" height="1" rx="0.5" fill="#CFD1D3"/>
<rect x="86" y="11" width="7" height="1" rx="0.5" fill="#CFD1D3"/>
<rect x="86" y="230" width="7" height="1" rx="0.5" fill="#CFD1D3"/>
<rect x="86" y="230" width="7" height="1" rx="0.5" fill="#CFD1D3"/>
<rect x="219" y="136" width="7" height="1" rx="0.5" transform="rotate(-90 219 136)" fill="#CFD1D3"/>
<rect x="219" y="136" width="7" height="1" rx="0.5" transform="rotate(-90 219 136)" fill="#CFD1D3"/>
<rect width="7" height="1" rx="0.5" transform="matrix(4.37114e-08 -1 -1 -4.37114e-08 12 136.5)" fill="#CFD1D3"/>
<rect width="7" height="1" rx="0.5" transform="matrix(4.37114e-08 -1 -1 -4.37114e-08 12 136.5)" fill="#CFD1D3"/>
<rect x="182" y="11" width="7" height="1" rx="0.5" fill="#CFD1D3"/>
<rect x="182" y="11" width="7" height="1" rx="0.5" fill="#CFD1D3"/>
<rect x="182" y="230" width="7" height="1" rx="0.5" fill="#CFD1D3"/>
<rect x="182" y="230" width="7" height="1" rx="0.5" fill="#CFD1D3"/>
<rect x="219" y="40" width="7" height="1" rx="0.5" transform="rotate(-90 219 40)" fill="#CFD1D3"/>
<rect x="219" y="40" width="7" height="1" rx="0.5" transform="rotate(-90 219 40)" fill="#CFD1D3"/>
<rect width="7" height="1" rx="0.5" transform="matrix(4.37114e-08 -1 -1 -4.37114e-08 12 40.5)" fill="#CFD1D3"/>
<rect width="7" height="1" rx="0.5" transform="matrix(4.37114e-08 -1 -1 -4.37114e-08 12 40.5)" fill="#CFD1D3"/>
<rect x="62" y="11" width="7" height="1" rx="0.5" fill="#CFD1D3"/>
<rect x="62" y="11" width="7" height="1" rx="0.5" fill="#CFD1D3"/>
<rect x="62" y="230" width="7" height="1" rx="0.5" fill="#CFD1D3"/>
<rect x="62" y="230" width="7" height="1" rx="0.5" fill="#CFD1D3"/>
<rect x="219" y="160" width="7" height="1" rx="0.5" transform="rotate(-90 219 160)" fill="#CFD1D3"/>
<rect x="219" y="160" width="7" height="1" rx="0.5" transform="rotate(-90 219 160)" fill="#CFD1D3"/>
<rect width="7" height="1" rx="0.5" transform="matrix(4.37114e-08 -1 -1 -4.37114e-08 12 160.5)" fill="#CFD1D3"/>
<rect width="7" height="1" rx="0.5" transform="matrix(4.37114e-08 -1 -1 -4.37114e-08 12 160.5)" fill="#CFD1D3"/>
<rect x="158" y="11" width="7" height="1" rx="0.5" fill="#CFD1D3"/>
<rect x="158" y="11" width="7" height="1" rx="0.5" fill="#CFD1D3"/>
<rect x="158" y="230" width="7" height="1" rx="0.5" fill="#CFD1D3"/>
<rect x="158" y="230" width="7" height="1" rx="0.5" fill="#CFD1D3"/>
<rect x="219" y="64" width="7" height="1" rx="0.5" transform="rotate(-90 219 64)" fill="#CFD1D3"/>
<rect x="219" y="64" width="7" height="1" rx="0.5" transform="rotate(-90 219 64)" fill="#CFD1D3"/>
<rect width="7" height="1" rx="0.5" transform="matrix(4.37114e-08 -1 -1 -4.37114e-08 12 64.5)" fill="#CFD1D3"/>
<rect width="7" height="1" rx="0.5" transform="matrix(4.37114e-08 -1 -1 -4.37114e-08 12 64.5)" fill="#CFD1D3"/>
<rect x="110" y="11" width="7" height="1" rx="0.5" fill="#CFD1D3"/>
<rect x="110" y="11" width="7" height="1" rx="0.5" fill="#CFD1D3"/>
<rect x="110" y="230" width="7" height="1" rx="0.5" fill="#CFD1D3"/>
<rect x="110" y="230" width="7" height="1" rx="0.5" fill="#CFD1D3"/>
<rect x="219" y="112" width="7" height="1" rx="0.5" transform="rotate(-90 219 112)" fill="#CFD1D3"/>
<rect x="219" y="112" width="7" height="1" rx="0.5" transform="rotate(-90 219 112)" fill="#CFD1D3"/>
<rect width="7" height="1" rx="0.5" transform="matrix(4.37114e-08 -1 -1 -4.37114e-08 12 112.5)" fill="#CFD1D3"/>
<rect width="7" height="1" rx="0.5" transform="matrix(4.37114e-08 -1 -1 -4.37114e-08 12 112.5)" fill="#CFD1D3"/>
<path d="M219.5 17.5C219 14 219 13 215 11.5" stroke="#CFD1D3"/>
<path d="M219.5 17.5C219 14 219 13 215 11.5" stroke="#CFD1D3"/>
<path d="M11.5 18C11.5 14.5 12.5 12.5 17 11.5" stroke="#CFD1D3"/>
<path d="M11.5 18C11.5 14.5 12.5 12.5 17 11.5" stroke="#CFD1D3"/>
<path d="M212.5 230.5C217.5 231 219 229 219.5 225" stroke="#CFD1D3"/>
<path d="M212.5 230.5C217.5 231 219 229 219.5 225" stroke="#CFD1D3"/>
<path d="M18 230.5C13.5 230.5 12 229 11.5 225" stroke="#CFD1D3"/>
<path d="M18 230.5C13.5 230.5 12 229 11.5 225" stroke="#CFD1D3"/>
</svg>
