<svg width="177" height="177" viewBox="0 0 177 177" fill="none" xmlns="http://www.w3.org/2000/svg">
<rect width="177" height="177" rx="10" fill="black"/>
<path d="M93.4629 123C89.2493 123 86.1039 121.945 84.0267 119.835C82.0089 117.725 81 114.127 81 109.042V61H88L87.7742 108.5C87.7742 112.071 88.5668 114.236 89.635 115.534C90.7033 116.832 92.1855 116.729 94.5 117H141V122.919L93.4629 123Z" fill="white"/>
<path d="M44.3623 99C40.5208 99 37.6531 98.1322 35.7594 96.3966C33.9198 94.661 33 91.7016 33 87.5183V62H40.013V87.2308C40.013 90.1679 40.013 90.1513 40.7143 91.1538C41.629 92.4615 43.5132 92.239 45.6234 92.4615H70.8274L71 99H44.3623Z" fill="white"/>
<path d="M133.783 56C136.494 56 138.693 56.8922 140.38 58.6766C142.127 60.4052 143 63.5836 143 68.2119V101H136L136.042 69.3829C136.042 66.316 135.831 64.2528 135.41 63.1933C134.988 62.0781 133.964 61.5204 132.337 61.5204C129.265 61.5204 126.494 63.277 124.024 66.79V101H116.976V69.3829C116.976 66.316 116.765 64.2528 116.343 63.1933C115.922 62.0781 114.898 61.5204 113.271 61.5204C110.199 61.5204 107.428 63.277 104.958 66.79L105 101H98V56.9201H103.873L104.416 62.1059C105.861 60.1543 107.367 58.6487 108.934 57.5892C110.56 56.5297 112.488 56 114.717 56C119.175 56 122.036 57.9517 123.301 61.855C124.747 59.9591 126.283 58.5093 127.91 57.5056C129.536 56.5019 131.494 56 133.783 56Z" fill="white"/>
<path d="M68 96V61V120" stroke="white" stroke-width="7"/>
<path d="M33 57C33 55.8954 33.8954 55 35 55H38C39.1046 55 40 55.8954 40 57V62C40 63.1046 39.1046 64 38 64H35C33.8954 64 33 63.1046 33 62V57Z" fill="white"/>
<path d="M64.5 57C64.5 55.8954 65.3954 55 66.5 55H69.5C70.6046 55 71.5 55.8954 71.5 57V62C71.5 63.1046 70.6046 64 69.5 64H66.5C65.3954 64 64.5 63.1046 64.5 62V57Z" fill="white"/>
<path d="M64.5 116C64.5 114.895 65.3954 114 66.5 114H69.5C70.6046 114 71.5 114.895 71.5 116V121C71.5 122.105 70.6046 123 69.5 123H66.5C65.3954 123 64.5 122.105 64.5 121V116Z" fill="white"/>
</svg>
